<?xml version="1.0" encoding="iso-8859-1"?>
<!-- Generator: Adobe Illustrator 19.0.0, SVG Export Plug-In . SVG Version: 6.00 Build 0)  -->
<svg version="1.1" id="Layer_1" xmlns="http://www.w3.org/2000/svg" xmlns:xlink="http://www.w3.org/1999/xlink" x="0px" y="0px"
	 viewBox="0 0 512 512" style="enable-background:new 0 0 512 512;" xml:space="preserve">
<circle style="fill:#1E495F;" cx="256" cy="256" r="256"/>
<path style="fill:#1D384E;" d="M160.406,350.287l154.58,154.872c100.595-23.725,178.282-106.782,194.069-210.212L353.354,139.245
	c0.154,0.154-1.356,1.042-3.827,2.347l-62.18-62.18c-0.582,0.582-17.007,8.152-27.855,13.119
	c-12.704,2.907-34.839,8.079-34.839,8.824l25.426,25.426v120.21C224.059,277.324,159.574,351.12,160.406,350.287z"/>
<rect x="161.426" y="126.96" transform="matrix(-0.8457 0.5336 -0.5336 -0.8457 408.1886 157.8506)" style="fill:#F7CB09;" width="39.7" height="21.942"/>
<g>
	
		<rect x="310.864" y="126.981" transform="matrix(0.8457 0.5336 -0.5336 0.8457 124.6339 -155.1919)" style="fill:#FFB541;" width="39.7" height="21.942"/>
	<rect x="243.461" y="95.086" style="fill:#FFB541;" width="25.078" height="30.302"/>
</g>
<rect x="256" y="95.086" style="fill:#FFA200;" width="12.539" height="30.302"/>
<circle style="fill:#FFB541;" cx="256" cy="256" r="134.269"/>
<path style="fill:#FFA200;" d="M256,121.731v268.539c74.155,0,134.269-60.114,134.269-134.269S330.155,121.731,256,121.731z"/>
<circle style="fill:#FFFFFF;" cx="256" cy="256" r="114.416"/>
<path style="fill:#E0F2FF;" d="M256,141.584v228.833c63.19,0,114.416-51.226,114.416-114.416S319.19,141.584,256,141.584z"/>
<path style="fill:#00BAFF;" d="M261.224,238.481v-76.522h-10.449v76.522c-7.551,2.249-13.061,9.236-13.061,17.519
	c0,10.099,8.187,18.286,18.286,18.286s18.286-8.187,18.286-18.286C274.286,247.718,268.776,240.731,261.224,238.481z"/>
<path style="fill:#009EDA;" d="M261.224,238.481v-76.522H256v112.327c10.099,0,18.286-8.187,18.286-18.286
	C274.286,247.718,268.776,240.731,261.224,238.481z"/>
<rect x="224.653" y="79.412" style="fill:#F7CB09;" width="62.694" height="21.943"/>
<rect x="256" y="79.412" style="fill:#FFB541;" width="31.347" height="21.943"/>
<g>
</g>
<g>
</g>
<g>
</g>
<g>
</g>
<g>
</g>
<g>
</g>
<g>
</g>
<g>
</g>
<g>
</g>
<g>
</g>
<g>
</g>
<g>
</g>
<g>
</g>
<g>
</g>
<g>
</g>
</svg>
