<?xml version="1.0" encoding="iso-8859-1"?>
<!-- Generator: Adobe Illustrator 19.0.0, SVG Export Plug-In . SVG Version: 6.00 Build 0)  -->
<svg version="1.1" id="Capa_1" xmlns="http://www.w3.org/2000/svg" xmlns:xlink="http://www.w3.org/1999/xlink" x="0px" y="0px"
	 viewBox="0 0 512 512" style="enable-background:new 0 0 512 512;" xml:space="preserve">
<g>
	<rect x="25.6" y="392.517" style="fill:#28384C;" width="170.667" height="51.2"/>
	<rect x="25.6" y="290.117" style="fill:#28384C;" width="170.667" height="51.2"/>
</g>
<circle style="fill:#7383BF;" cx="375.467" cy="136.517" r="128"/>
<g>
	<rect x="8.533" y="435.183" style="fill:#1E4470;" width="204.8" height="68.267"/>
	<rect x="8.533" y="332.783" style="fill:#1E4470;" width="204.8" height="68.267"/>
	<rect x="8.533" y="230.383" style="fill:#1E4470;" width="204.8" height="68.267"/>
</g>
<g>
	<path style="fill:#4D007E;" d="M213.333,511.983H8.533c-4.71,0-8.533-3.823-8.533-8.533v-68.267c0-4.71,3.823-8.533,8.533-8.533
		h204.8c4.71,0,8.533,3.823,8.533,8.533v68.267C221.867,508.16,218.044,511.983,213.333,511.983z M17.067,494.917H204.8v-51.2
		H17.067V494.917z"/>
	<path style="fill:#4D007E;" d="M179.2,477.85h-68.267c-4.71,0-8.533-3.823-8.533-8.533s3.823-8.533,8.533-8.533H179.2
		c4.71,0,8.533,3.823,8.533,8.533S183.91,477.85,179.2,477.85z"/>
	<path style="fill:#4D007E;" d="M76.8,477.85H42.667c-4.71,0-8.533-3.823-8.533-8.533s3.823-8.533,8.533-8.533H76.8
		c4.71,0,8.533,3.823,8.533,8.533S81.51,477.85,76.8,477.85z"/>
	<path style="fill:#4D007E;" d="M213.333,409.583H8.533c-4.71,0-8.533-3.823-8.533-8.533v-68.267c0-4.71,3.823-8.533,8.533-8.533
		h204.8c4.71,0,8.533,3.823,8.533,8.533v68.267C221.867,405.76,218.044,409.583,213.333,409.583z M17.067,392.517H204.8v-51.2
		H17.067V392.517z"/>
	<path style="fill:#4D007E;" d="M68.267,375.45H51.2c-4.71,0-8.533-3.823-8.533-8.533c0-4.71,3.823-8.533,8.533-8.533h17.067
		c4.71,0,8.533,3.823,8.533,8.533C76.8,371.627,72.977,375.45,68.267,375.45z"/>
	<path style="fill:#4D007E;" d="M119.467,375.45H102.4c-4.71,0-8.533-3.823-8.533-8.533c0-4.71,3.823-8.533,8.533-8.533h17.067
		c4.71,0,8.533,3.823,8.533,8.533C128,371.627,124.177,375.45,119.467,375.45z"/>
	<path style="fill:#4D007E;" d="M170.667,375.45H153.6c-4.71,0-8.533-3.823-8.533-8.533c0-4.71,3.823-8.533,8.533-8.533h17.067
		c4.71,0,8.533,3.823,8.533,8.533C179.2,371.627,175.377,375.45,170.667,375.45z"/>
	<path style="fill:#4D007E;" d="M196.267,443.717H25.6c-4.71,0-8.533-3.823-8.533-8.533V401.05c0-4.71,3.823-8.533,8.533-8.533
		h170.667c4.71,0,8.533,3.823,8.533,8.533v34.133C204.8,439.894,200.977,443.717,196.267,443.717z M34.133,426.65h153.6v-17.067
		h-153.6V426.65z"/>
	<path style="fill:#4D007E;" d="M213.333,307.183H8.533c-4.71,0-8.533-3.823-8.533-8.533v-68.267c0-4.71,3.823-8.533,8.533-8.533
		h204.8c4.71,0,8.533,3.823,8.533,8.533v68.267C221.867,303.36,218.044,307.183,213.333,307.183z M17.067,290.117H204.8v-51.2
		H17.067V290.117z"/>
	<path style="fill:#4D007E;" d="M68.267,273.05H51.2c-4.71,0-8.533-3.823-8.533-8.533c0-4.71,3.823-8.533,8.533-8.533h17.067
		c4.71,0,8.533,3.823,8.533,8.533C76.8,269.227,72.977,273.05,68.267,273.05z"/>
	<path style="fill:#4D007E;" d="M119.467,273.05H102.4c-4.71,0-8.533-3.823-8.533-8.533c0-4.71,3.823-8.533,8.533-8.533h17.067
		c4.71,0,8.533,3.823,8.533,8.533C128,269.227,124.177,273.05,119.467,273.05z"/>
	<path style="fill:#4D007E;" d="M170.667,273.05H153.6c-4.71,0-8.533-3.823-8.533-8.533c0-4.71,3.823-8.533,8.533-8.533h17.067
		c4.71,0,8.533,3.823,8.533,8.533C179.2,269.227,175.377,273.05,170.667,273.05z"/>
	<path style="fill:#4D007E;" d="M196.267,341.317H25.6c-4.71,0-8.533-3.823-8.533-8.533V298.65c0-4.71,3.823-8.533,8.533-8.533
		h170.667c4.71,0,8.533,3.823,8.533,8.533v34.133C204.8,337.494,200.977,341.317,196.267,341.317z M34.133,324.25h153.6v-17.067
		h-153.6V324.25z"/>
	<path style="fill:#4D007E;" d="M503.467,145.05h-256c-4.71,0-8.533-3.823-8.533-8.533s3.823-8.533,8.533-8.533h256
		c4.71,0,8.533,3.823,8.533,8.533S508.177,145.05,503.467,145.05z"/>
	<path style="fill:#4D007E;" d="M375.467,272.982c-34.961,0-69.922-13.312-96.538-39.927c-53.231-53.231-53.231-139.853,0-193.084
		s139.853-53.231,193.084,0s53.231,139.853,0,193.084C445.389,259.67,410.428,272.982,375.467,272.982z M375.467,17.11
		c-30.592,0-61.184,11.648-84.471,34.935c-46.575,46.575-46.575,122.368,0,168.951c46.583,46.575,122.368,46.575,168.951,0
		c46.575-46.575,46.575-122.368,0-168.951C436.651,28.749,406.059,17.11,375.467,17.11z"/>
	<path style="fill:#4D007E;" d="M375.467,272.982c-34.961,0-69.922-13.312-96.538-39.927c-2.287-2.278-4.437-4.642-6.528-7.04
		c-1.869-2.142-2.543-5.086-1.801-7.834c0.742-2.748,2.807-4.941,5.504-5.854c17.766-6.007,54.298-16.077,99.362-16.077
		s81.596,10.078,99.362,16.077c2.697,0.913,4.762,3.106,5.504,5.854c0.742,2.748,0.068,5.692-1.801,7.834
		c-2.091,2.398-4.241,4.762-6.528,7.04C445.389,259.67,410.428,272.982,375.467,272.982z M294.622,224.47
		c45.577,41.933,116.105,41.933,161.681,0c-18.799-5.274-47.309-11.162-80.845-11.162S313.421,219.205,294.622,224.47z"/>
	<path style="fill:#4D007E;" d="M375.467,76.783c-45.065,0-81.596-10.078-99.362-16.077c-2.697-0.913-4.762-3.106-5.504-5.854
		c-0.742-2.748-0.068-5.692,1.801-7.834c2.091-2.398,4.241-4.762,6.528-7.04c53.231-53.231,139.853-53.231,193.084,0
		c2.287,2.278,4.437,4.642,6.528,7.04c1.869,2.142,2.543,5.086,1.801,7.834c-0.742,2.748-2.807,4.941-5.504,5.854
		C457.062,66.705,420.531,76.783,375.467,76.783z M294.622,48.555c18.799,5.274,47.309,11.162,80.845,11.162
		s62.046-5.888,80.845-11.162C410.735,6.622,340.198,6.622,294.622,48.555z"/>
	<path style="fill:#4D007E;" d="M375.467,273.05c-1.417,0-2.833-0.358-4.122-1.067c-2.722-1.493-4.412-4.361-4.412-7.467V8.551
		c0-3.106,1.69-5.973,4.42-7.475c2.722-1.502,6.042-1.399,8.678,0.265c9.028,5.7,17.348,12.535,26.991,22.17l0,0
		c30.703,30.703,47.607,70.827,47.607,112.998s-16.905,82.304-47.607,112.998c-9.711,9.711-18.031,16.563-26.991,22.221
		C378.633,272.606,377.054,273.05,375.467,273.05z M384,25.43v222.191c3.49-2.961,7.083-6.306,10.948-10.172
		c27.477-27.477,42.607-63.317,42.607-100.932s-15.13-73.455-42.607-100.932C391.1,31.736,387.499,28.391,384,25.43z"/>
	<path style="fill:#4D007E;" d="M375.467,273.007c-1.587,0-3.166-0.444-4.557-1.323c-9.037-5.709-17.357-12.544-26.991-22.178
		c-30.703-30.703-47.607-70.827-47.607-112.998s16.905-82.304,47.607-112.998l0,0c9.643-9.634,17.963-16.469,26.991-22.17
		c2.637-1.664,5.956-1.766,8.678-0.265C382.31,2.586,384,5.445,384,8.551v255.923c0,3.106-1.69,5.973-4.42,7.475
		C378.3,272.658,376.883,273.007,375.467,273.007z M355.985,35.584c-27.477,27.477-42.607,63.317-42.607,100.932
		s15.13,73.455,42.607,100.932c3.849,3.849,7.45,7.185,10.948,10.155V25.43C363.435,28.391,359.834,31.736,355.985,35.584
		L355.985,35.584z"/>
	<path style="fill:#4D007E;" d="M375.467,426.65H256c-4.71,0-8.533-3.823-8.533-8.533s3.823-8.533,8.533-8.533h110.933V298.65
		c0-4.71,3.823-8.533,8.533-8.533c4.71,0,8.533,3.823,8.533,8.533v119.467C384,422.827,380.177,426.65,375.467,426.65z"/>
	<path style="fill:#4D007E;" d="M93.867,204.783c-4.71,0-8.533-3.823-8.533-8.533v-59.733c0-4.71,3.823-8.533,8.533-8.533h119.467
		c4.71,0,8.533,3.823,8.533,8.533s-3.823,8.533-8.533,8.533H102.4v51.2C102.4,200.96,98.577,204.783,93.867,204.783z"/>
</g>
<g>
</g>
<g>
</g>
<g>
</g>
<g>
</g>
<g>
</g>
<g>
</g>
<g>
</g>
<g>
</g>
<g>
</g>
<g>
</g>
<g>
</g>
<g>
</g>
<g>
</g>
<g>
</g>
<g>
</g>
</svg>
